<svg class="thumb" width="950" height="438" viewBox="0,0,950,438" xmlns="http://www.w3.org/2000/svg" xmlns:inkscape="http://www.inkscape.org/namespaces/inkscape" xmlns:sodipodi="http://sodipodi.sourceforge.net/DTD/sodipodi-0.dtd" xmlns:xlink="http://www.w3.org/1999/xlink" xmlns:ns1="http://www.inkscape.org/namespaces/inkscape" xmlns:sketch="http://www.bohemiancoding.com/sketch/ns"><defs></defs><g><g transform="matrix(1.888,0,0,1.888,383.2319,0.1255)"><svg width="77.107" height="100" viewBox="11.446000000000002,0,77.107,100"><defs><linearGradient x1="0" y1="0.5" x2="1" y2="0.5" id="linearGradientSk1td7f5za6"><stop offset="0%" stop-color="#5d6b73"></stop><stop offset="100%" stop-color="#5d6b73"></stop></linearGradient></defs><g><path d="M24.753,60.656L50.008,95L23.059,58.559c-4.155-5.586-6.613-12.508-6.613-20.005l0-33.554h67.107l0,33.554     c0,7.282-2.32,14.023-6.261,19.523L50.008,95 M30.201,18.99l0.003,19.563c0,4.472,1.483,8.598,3.984,11.912L50.1,72.356V19.055     L30.201,18.99z" fill="url('#linearGradientSk1td7f5za6')"></path></g></svg></g><g transform="matrix(1.4769,0,0,1.4769,133.2219,194.784)"><svg width="437" height="175" style="overflow: visible;"><defs><linearGradient x1="0" y1="0.5" x2="1" y2="0.5" id="linearGradientSk1td7f5zf4"><stop offset="0%" stop-color="#5d6b73"></stop><stop offset="100%" stop-color="#5d6b73"></stop></linearGradient></defs><g><path d="M-175.74999999999997-19.3Q-175.74999999999997-11.1 -173.85-8.05Q-171.95-5 -168.45-5Q-164.95-5 -163.2-7.65Q-161.45-10.3 -160.85-17.7L-160.85-17.7L-153.84999999999997-16.8Q-154.75-6.6 -158.39999999999998-2.55Q-162.04999999999998 1.5 -168.85 1.5Q-175.64999999999998 1.5 -179.64999999999998-3.4Q-183.64999999999998-8.3 -183.64999999999998-21.4L-183.64999999999998-21.4L-183.64999999999998-48.6Q-183.64999999999998-61.7 -179.64999999999998-66.6Q-175.64999999999998-71.5 -168.89999999999998-71.5Q-162.14999999999998-71.5 -158.6-68Q-155.04999999999998-64.5 -154.25-55.5L-154.25-55.5L-161.54999999999998-53.7Q-162.14999999999998-60.1 -163.79999999999998-62.55Q-165.45-65 -168.7-65Q-171.95-65 -173.85-61.85Q-175.74999999999997-58.7 -175.74999999999997-50.3L-175.74999999999997-50.3L-175.74999999999997-19.3ZM-100.54999999999997-49.1L-100.54999999999997-49.1L-100.54999999999997-20.9Q-100.54999999999997-8.2 -104.59999999999997-3.35Q-108.64999999999998 1.5 -116.19999999999997 1.5Q-123.74999999999997 1.5 -127.79999999999997-3.35Q-131.84999999999997-8.2 -131.84999999999997-20.9L-131.84999999999997-20.9L-131.84999999999997-49.1Q-131.84999999999997-61.8 -127.79999999999997-66.65Q-123.74999999999997-71.5 -116.19999999999997-71.5Q-108.64999999999998-71.5 -104.59999999999997-66.65Q-100.54999999999997-61.8 -100.54999999999997-49.1ZM-108.44999999999997-19.4L-108.44999999999997-19.4L-108.44999999999997-50.6Q-108.44999999999997-65 -116.14999999999998-65L-116.14999999999998-65Q-119.84999999999997-65 -121.89999999999998-61.9Q-123.94999999999997-58.8 -123.94999999999997-50.6L-123.94999999999997-50.6L-123.94999999999997-19.4Q-123.94999999999997-11.2 -121.89999999999998-8.1Q-119.84999999999997-5 -116.14999999999998-5L-116.14999999999998-5Q-108.44999999999997-5 -108.44999999999997-19.4ZM-67.14999999999998-63.2L-67.14999999999998 0L-74.94999999999997 0L-74.94999999999997-70L-62.74999999999997-70L-54.24999999999997-21.5L-45.64999999999997-70L-33.449999999999974-70L-33.449999999999974 0L-41.24999999999997 0L-41.24999999999997-63.2L-49.74999999999997-15L-58.64999999999997-15L-67.14999999999998-63.2ZM 1.5500000000000291 0L-6.449999999999972 0L-6.449999999999972-70L 5.950000000000028-70Q 13.450000000000028-70  17.50000000000003-65.15Q 21.550000000000026-60.3  21.550000000000026-47.6L 21.550000000000026-47.6L 21.550000000000026-47.1Q 21.550000000000026-34.4  17.50000000000003-29.6Q 13.450000000000028-24.8  5.950000000000028-24.8L 5.950000000000028-24.8L 1.5500000000000291-24.8L 1.5500000000000291 0ZM 13.650000000000027-45.8L 13.650000000000027-45.8L 13.650000000000027-48.9Q 13.650000000000027-63.6  5.950000000000028-63.6L 5.950000000000028-63.6L 1.5500000000000291-63.6L 1.5500000000000291-31.1L 5.950000000000028-31.1Q 13.650000000000027-31.1  13.650000000000027-45.8ZM 75.75000000000006 0L 67.75000000000006 0L 64.65000000000005-18.2L 50.550000000000054-18.2L 47.550000000000054 0L 39.550000000000054 0L 52.35000000000005-70L 62.95000000000005-70L 75.75000000000006 0ZM 63.550000000000054-24.6L 57.65000000000005-59.9L 51.65000000000005-24.6L 63.550000000000054-24.6ZM 105.85000000000005-51.1L 105.85000000000005 0L 98.05000000000005 0L 98.05000000000005-70L 106.35000000000005-70L 122.65000000000006-18.8L 122.65000000000006-70L 130.45000000000005-70L 130.45000000000005 0L 122.15000000000006 0L 105.85000000000005-51.1ZM 173.75000000000006-23.4L 173.75000000000006 0L 165.95000000000007 0L 165.95000000000007-23.4L 152.75000000000006-70L 160.55000000000007-70L 169.85000000000005-33.9L 179.05000000000007-70L 186.85000000000008-70L 173.75000000000006-23.4Z" data-textpath="C O M P A N Y" data-text-anchor="middle" data-font-size="100" data-letterspacing="0" data-side="left" data-offset="0" data-dx="0" data-dy="86.25" data-xmlspace="preserve" data-href="" data-font="Pathway Gothic One" data-font-src="/Content/clientfonts/pathwaygothicone.woff" data-font-scale="contain" transform="translate(218.5,86.25)" data-x="218.5" data-y="0" fill="url('#linearGradientSk1td7f5zf4')"></path></g></svg></g><g transform="matrix(0.9178,0,0,0.9178,328.7965,333.0839)"><svg width="277" height="175" style="overflow: visible;"><defs><linearGradient x1="0" y1="0.5" x2="1" y2="0.5" id="linearGradientSk1td7f5zf7"><stop offset="0%" stop-color="#5d6b73"></stop><stop offset="100%" stop-color="#5d6b73"></stop></linearGradient></defs><g><path d="M-94.70000000000002-51.1L-94.70000000000002 0L-102.50000000000001 0L-102.50000000000001-70L-94.20000000000002-70L-77.9-18.8L-77.9-70L-70.10000000000001-70L-70.10000000000001 0L-78.4 0L-94.70000000000002-51.1ZM-11.600000000000023 0L-19.60000000000002 0L-22.70000000000002-18.2L-36.80000000000002-18.2L-39.80000000000002 0L-47.80000000000002 0L-35.00000000000002-70L-24.40000000000002-70L-11.600000000000023 0ZM-23.80000000000002-24.6L-29.70000000000002-59.9L-35.70000000000002-24.6L-23.80000000000002-24.6ZM 18.499999999999986-63.2L 18.499999999999986 0L 10.699999999999985 0L 10.699999999999985-70L 22.899999999999984-70L 31.399999999999984-21.5L 39.999999999999986-70L 52.19999999999998-70L 52.19999999999998 0L 44.399999999999984 0L 44.399999999999984-63.2L 35.899999999999984-15L 26.999999999999986-15L 18.499999999999986-63.2ZM 102.79999999999998-31.7L 87.19999999999999-31.7L 87.19999999999999-6.4L 104.6-6.4L 104.6 0L 79.19999999999999 0L 79.19999999999999-70L 104.29999999999998-70L 104.29999999999998-63.6L 87.19999999999999-63.6L 87.19999999999999-38.1L 102.79999999999998-38.1L 102.79999999999998-31.7Z" data-textpath="N A M E" data-text-anchor="middle" data-font-size="100" data-letterspacing="0" data-side="left" data-offset="0" data-dx="0" data-dy="86.25" data-xmlspace="preserve" data-href="" data-font="Pathway Gothic One" data-font-src="/Content/clientfonts/pathwaygothicone.woff" data-font-scale="contain" transform="translate(138.5,86.25)" data-x="138.5" data-y="0" fill="url('#linearGradientSk1td7f5zf7')"></path></g></svg></g><g transform="matrix(0.0699,0,0,0.0699,315.3867,375.5036)"><svg width="187.0337218024264" height="186.77" viewBox="-5.131860901213205,-5,187.0337218024264,186.77"><defs><linearGradient x1="0" y1="0.5" x2="1" y2="0.5" id="linearGradientSk1td7f5zak"><stop offset="0%" stop-color="#5d6b73"></stop><stop offset="100%" stop-color="#5d6b73"></stop></linearGradient></defs><g><circle cx="88.385" cy="88.385" r="88.385" fill="url('#linearGradientSk1td7f5zak')"></circle></g></svg></g><g transform="matrix(0.0699,0,0,0.0699,583.3867,375.5036)"><svg width="187.0337218024264" height="186.77" viewBox="-5.131860901213205,-5,187.0337218024264,186.77"><defs><linearGradient x1="0" y1="0.5" x2="1" y2="0.5" id="linearGradientSk1td7f5zaq"><stop offset="0%" stop-color="#5d6b73"></stop><stop offset="100%" stop-color="#5d6b73"></stop></linearGradient></defs><g><circle cx="88.385" cy="88.385" r="88.385" fill="url('#linearGradientSk1td7f5zaq')"></circle></g></svg></g></g></svg>